<svg xmlns="http://www.w3.org/2000/svg" viewBox="0 0 512 512">
  <!-- Main stem -->
  <path d="M256 460 C256 460 250 340 248 280 C246 220 256 160 256 160" 
        stroke="#2e7d32" stroke-width="14" fill="none" stroke-linecap="round"/>
  <!-- Left large leaf -->
  <path d="M248 300 C200 280 140 240 120 180 C120 180 180 160 220 200 C240 220 248 260 248 300Z" 
        fill="#388e3c"/>
  <!-- Right large leaf -->
  <path d="M258 260 C300 230 360 200 390 140 C390 140 330 130 290 170 C270 190 258 230 258 260Z" 
        fill="#43a047"/>
  <!-- Left small leaf -->
  <path d="M250 230 C220 210 180 170 165 120 C165 120 210 115 235 150 C248 168 250 200 250 230Z" 
        fill="#66bb6a"/>
  <!-- Right small leaf -->
  <path d="M258 190 C280 165 310 130 340 105 C340 105 300 95 275 125 C260 145 258 170 258 190Z" 
        fill="#4caf50"/>
  <!-- Top leaf -->
  <path d="M253 170 C245 130 250 80 270 45 C270 45 285 75 280 120 C278 145 265 165 253 170Z" 
        fill="#81c784"/>
  <!-- Leaf veins -->
  <path d="M248 300 C220 270 160 220 130 185" stroke="#1b5e20" stroke-width="2" fill="none" opacity="0.5" stroke-linecap="round"/>
  <path d="M258 260 C290 230 340 190 375 155" stroke="#2e7d32" stroke-width="2" fill="none" opacity="0.5" stroke-linecap="round"/>
  <path d="M250 230 C230 200 195 160 175 130" stroke="#2e7d32" stroke-width="1.5" fill="none" opacity="0.4" stroke-linecap="round"/>
  <path d="M258 190 C275 165 305 135 330 115" stroke="#2e7d32" stroke-width="1.5" fill="none" opacity="0.4" stroke-linecap="round"/>
</svg>
